<svg width="1178" height="1080" viewBox="0 0 1178 1080" fill="none" xmlns="http://www.w3.org/2000/svg">
<g clip-path="url(#clip0_708_2)">
<path d="M237.813 17.5H239.446L241.897 17.5254C344.726 19.0935 433.825 79.5734 476.7 166.573L477.713 168.649C494.169 202.786 503.515 240.927 503.822 281.138L503.83 283.054V754.58C503.83 774.898 520.4 791.103 540.516 791.104H541.009C560.5 791.103 576.489 775.941 577.641 756.619C583.397 660.801 637.595 572.696 722.027 523.891C729.837 519.38 737.903 515.196 745.984 511.482L745.991 511.479C751.492 508.948 757.051 506.593 762.645 504.425L762.651 504.422C796.368 491.335 831.966 484.708 868.818 484.708C1029.79 484.708 1160.5 614.461 1160.5 773.604C1160.5 932.736 1029.79 1062.5 868.818 1062.5C851.563 1062.5 834.585 1061.04 817.951 1058.16C818.04 1058.09 818.123 1058.02 818.195 1057.96C818.408 1057.8 818.553 1057.68 818.689 1057.58L818.745 1057.53L818.8 1057.49C820.78 1055.92 822.785 1054.32 824.787 1052.68C824.948 1052.55 825.514 1052.09 826.011 1051.68L826.012 1051.68C828.225 1049.85 830.417 1047.99 832.599 1046.1L832.627 1046.08L832.656 1046.05C833.065 1045.7 833.549 1045.27 834.046 1044.83C836.088 1043.05 838.096 1041.25 840.078 1039.44L840.164 1039.36L840.248 1039.29C840.242 1039.29 840.252 1039.28 840.369 1039.18C840.441 1039.11 840.587 1038.98 840.753 1038.82L840.754 1038.82C842.906 1036.84 845.005 1034.85 847.066 1032.86L847.082 1032.85L847.098 1032.83C847.519 1032.42 848.026 1031.93 848.537 1031.43L848.538 1031.43C850.622 1029.4 852.685 1027.34 854.735 1025.24L854.84 1025.13L854.941 1025.02C854.97 1024.99 854.996 1024.96 855.021 1024.94C855.882 1024.1 857.466 1022.57 858.936 1020.88L858.979 1020.83L859.02 1020.79C859.93 1019.72 860.415 1019.29 862.255 1017.29L862.254 1017.28C864.205 1015.16 866.122 1013.02 868.014 1010.86C868.421 1010.4 868.799 1009.96 869.072 1009.64C870.727 1007.73 872.374 1005.8 873.999 1003.85L874.091 1003.74L874.18 1003.63C874.459 1003.29 874.517 1003.23 875.104 1002.52L875.119 1002.5L875.135 1002.48C876.973 1000.25 878.776 998.01 880.553 995.749L880.627 995.653C880.843 995.374 881.055 995.098 881.23 994.869C881.409 994.636 881.554 994.447 881.693 994.267C883.297 992.203 884.908 990.095 886.497 987.957L886.574 987.853L886.65 987.747C886.728 987.639 886.833 987.499 887.081 987.171L887.158 987.07L887.232 986.969C888.95 984.631 890.645 982.271 892.315 979.889L892.389 979.785L892.46 979.68C892.574 979.512 892.699 979.332 892.894 979.054C893.051 978.827 893.263 978.52 893.486 978.193L893.487 978.194C895.102 975.854 896.798 973.38 898.473 970.82L898.474 970.821C933.168 917.984 953.157 857.416 956.793 794.56L956.794 794.555C958.014 773.349 940.887 756.104 920.181 756.104C910.512 756.104 901.641 759.86 895.068 766.021L895.058 766.03L895.047 766.041C888.513 772.186 884.167 780.779 883.592 790.475C883.097 798.732 882.251 806.922 881.058 815.035C880.553 818.437 879.984 821.842 879.36 825.239C878.73 828.618 878.05 831.962 877.312 835.283C876.572 838.613 875.766 841.941 874.903 845.279C874.036 848.582 873.122 851.851 872.148 855.099L872.146 855.107L872.143 855.117C870.192 861.652 868.018 868.093 865.612 874.432L865.604 874.454L865.596 874.477C864.405 877.64 863.149 880.792 861.839 883.92C834.253 949.735 782.545 1004.73 715.227 1035.72L714.014 1036.28L714.004 1036.28C675.773 1053.68 634.913 1062.5 592.415 1062.5C431.448 1062.5 300.732 932.736 300.732 773.604C300.732 772.193 300.743 770.793 300.764 769.394L300.766 769.265V282.578C300.765 172.368 211.141 82.1926 100.912 81.4795H100.913C86.9814 81.3883 73.2615 82.6951 59.9209 85.3203C107.956 42.7053 171.102 17.5 237.813 17.5Z" fill="#FFFDE7" stroke="#071126" stroke-width="35"/>
</g>
<defs>
<clipPath id="clip0_708_2">
<rect width="1178" height="1080" fill="white"/>
</clipPath>
</defs>
</svg>
